<svg aria-hidden="true" style="position: absolute; width: 0; height: 0; overflow: hidden;" version="1.1" xmlns="http://www.w3.org/2000/svg" xmlns:xlink="http://www.w3.org/1999/xlink">
<defs>
<symbol id="icon-plus" viewBox="0 0 22 28">
<title>plus</title>
<path d="M22 11.5v3c0 0.828-0.672 1.5-1.5 1.5h-6.5v6.5c0 0.828-0.672 1.5-1.5 1.5h-3c-0.828 0-1.5-0.672-1.5-1.5v-6.5h-6.5c-0.828 0-1.5-0.672-1.5-1.5v-3c0-0.828 0.672-1.5 1.5-1.5h6.5v-6.5c0-0.828 0.672-1.5 1.5-1.5h3c0.828 0 1.5 0.672 1.5 1.5v6.5h6.5c0.828 0 1.5 0.672 1.5 1.5z"></path>
</symbol>
<symbol id="icon-envelope-o" viewBox="0 0 28 28">
<title>envelope-o</title>
<path d="M26 23.5v-12c-0.328 0.375-0.688 0.719-1.078 1.031-2.234 1.719-4.484 3.469-6.656 5.281-1.172 0.984-2.625 2.188-4.25 2.188h-0.031c-1.625 0-3.078-1.203-4.25-2.188-2.172-1.813-4.422-3.563-6.656-5.281-0.391-0.313-0.75-0.656-1.078-1.031v12c0 0.266 0.234 0.5 0.5 0.5h23c0.266 0 0.5-0.234 0.5-0.5zM26 7.078c0-0.391 0.094-1.078-0.5-1.078h-23c-0.266 0-0.5 0.234-0.5 0.5 0 1.781 0.891 3.328 2.297 4.438 2.094 1.641 4.188 3.297 6.266 4.953 0.828 0.672 2.328 2.109 3.422 2.109h0.031c1.094 0 2.594-1.437 3.422-2.109 2.078-1.656 4.172-3.313 6.266-4.953 1.016-0.797 2.297-2.531 2.297-3.859zM28 6.5v17c0 1.375-1.125 2.5-2.5 2.5h-23c-1.375 0-2.5-1.125-2.5-2.5v-17c0-1.375 1.125-2.5 2.5-2.5h23c1.375 0 2.5 1.125 2.5 2.5z"></path>
</symbol>
<symbol id="icon-user" viewBox="0 0 20 28">
<title>user</title>
<path d="M20 21.859c0 2.281-1.5 4.141-3.328 4.141h-13.344c-1.828 0-3.328-1.859-3.328-4.141 0-4.109 1.016-8.859 5.109-8.859 1.266 1.234 2.984 2 4.891 2s3.625-0.766 4.891-2c4.094 0 5.109 4.75 5.109 8.859zM16 8c0 3.313-2.688 6-6 6s-6-2.688-6-6 2.688-6 6-6 6 2.688 6 6z"></path>
</symbol>
<symbol id="icon-github" viewBox="0 0 24 28">
<title>github</title>
<path d="M12 2c6.625 0 12 5.375 12 12 0 5.297-3.437 9.797-8.203 11.391-0.609 0.109-0.828-0.266-0.828-0.578 0-0.391 0.016-1.687 0.016-3.297 0-1.125-0.375-1.844-0.812-2.219 2.672-0.297 5.484-1.313 5.484-5.922 0-1.313-0.469-2.375-1.234-3.219 0.125-0.313 0.531-1.531-0.125-3.187-1-0.313-3.297 1.234-3.297 1.234-0.953-0.266-1.984-0.406-3-0.406s-2.047 0.141-3 0.406c0 0-2.297-1.547-3.297-1.234-0.656 1.656-0.25 2.875-0.125 3.187-0.766 0.844-1.234 1.906-1.234 3.219 0 4.594 2.797 5.625 5.469 5.922-0.344 0.313-0.656 0.844-0.766 1.609-0.688 0.313-2.438 0.844-3.484-1-0.656-1.141-1.844-1.234-1.844-1.234-1.172-0.016-0.078 0.734-0.078 0.734 0.781 0.359 1.328 1.75 1.328 1.75 0.703 2.141 4.047 1.422 4.047 1.422 0 1 0.016 1.937 0.016 2.234 0 0.313-0.219 0.688-0.828 0.578-4.766-1.594-8.203-6.094-8.203-11.391 0-6.625 5.375-12 12-12zM4.547 19.234c0.031-0.063-0.016-0.141-0.109-0.187-0.094-0.031-0.172-0.016-0.203 0.031-0.031 0.063 0.016 0.141 0.109 0.187 0.078 0.047 0.172 0.031 0.203-0.031zM5.031 19.766c0.063-0.047 0.047-0.156-0.031-0.25-0.078-0.078-0.187-0.109-0.25-0.047-0.063 0.047-0.047 0.156 0.031 0.25 0.078 0.078 0.187 0.109 0.25 0.047zM5.5 20.469c0.078-0.063 0.078-0.187 0-0.297-0.063-0.109-0.187-0.156-0.266-0.094-0.078 0.047-0.078 0.172 0 0.281s0.203 0.156 0.266 0.109zM6.156 21.125c0.063-0.063 0.031-0.203-0.063-0.297-0.109-0.109-0.25-0.125-0.313-0.047-0.078 0.063-0.047 0.203 0.063 0.297 0.109 0.109 0.25 0.125 0.313 0.047zM7.047 21.516c0.031-0.094-0.063-0.203-0.203-0.25-0.125-0.031-0.266 0.016-0.297 0.109s0.063 0.203 0.203 0.234c0.125 0.047 0.266 0 0.297-0.094zM8.031 21.594c0-0.109-0.125-0.187-0.266-0.172-0.141 0-0.25 0.078-0.25 0.172 0 0.109 0.109 0.187 0.266 0.172 0.141 0 0.25-0.078 0.25-0.172zM8.937 21.438c-0.016-0.094-0.141-0.156-0.281-0.141-0.141 0.031-0.234 0.125-0.219 0.234 0.016 0.094 0.141 0.156 0.281 0.125s0.234-0.125 0.219-0.219z"></path>
</symbol>
<symbol id="icon-linkedin" viewBox="0 0 24 28">
<title>linkedin</title>
<path d="M5.453 9.766v15.484h-5.156v-15.484h5.156zM5.781 4.984c0.016 1.484-1.109 2.672-2.906 2.672v0h-0.031c-1.734 0-2.844-1.188-2.844-2.672 0-1.516 1.156-2.672 2.906-2.672 1.766 0 2.859 1.156 2.875 2.672zM24 16.375v8.875h-5.141v-8.281c0-2.078-0.75-3.5-2.609-3.5-1.422 0-2.266 0.953-2.641 1.875-0.125 0.344-0.172 0.797-0.172 1.266v8.641h-5.141c0.063-14.031 0-15.484 0-15.484h5.141v2.25h-0.031c0.672-1.062 1.891-2.609 4.672-2.609 3.391 0 5.922 2.219 5.922 6.969z"></path>
</symbol>
<symbol id="icon-file-code-o" viewBox="0 0 24 28">
<title>file-code-o</title>
<path d="M22.937 5.938c0.578 0.578 1.062 1.734 1.062 2.562v18c0 0.828-0.672 1.5-1.5 1.5h-21c-0.828 0-1.5-0.672-1.5-1.5v-25c0-0.828 0.672-1.5 1.5-1.5h14c0.828 0 1.984 0.484 2.562 1.062zM16 2.125v5.875h5.875c-0.094-0.266-0.234-0.531-0.344-0.641l-4.891-4.891c-0.109-0.109-0.375-0.25-0.641-0.344zM22 26v-16h-6.5c-0.828 0-1.5-0.672-1.5-1.5v-6.5h-12v24h20zM7.5 12c0.172-0.219 0.484-0.266 0.703-0.094l0.797 0.594c0.219 0.172 0.266 0.484 0.094 0.703l-2.844 3.797 2.844 3.797c0.172 0.219 0.125 0.531-0.094 0.703l-0.797 0.594c-0.219 0.172-0.531 0.125-0.703-0.094l-3.531-4.703c-0.125-0.172-0.125-0.422 0-0.594zM20.031 16.703c0.125 0.172 0.125 0.422 0 0.594l-3.531 4.703c-0.172 0.219-0.484 0.266-0.703 0.094l-0.797-0.594c-0.219-0.172-0.266-0.484-0.094-0.703l2.844-3.797-2.844-3.797c-0.172-0.219-0.125-0.531 0.094-0.703l0.797-0.594c0.219-0.172 0.531-0.125 0.703 0.094zM10.344 23.906c-0.281-0.047-0.453-0.313-0.406-0.578l2.156-12.984c0.047-0.281 0.313-0.453 0.578-0.406l0.984 0.156c0.281 0.047 0.453 0.313 0.406 0.578l-2.156 12.984c-0.047 0.281-0.313 0.453-0.578 0.406z"></path>
</symbol>
<symbol id="icon-envelope-open-o" viewBox="0 0 28 28">
<title>envelope-open-o</title>
<path d="M23.031 14.266l0.609 0.797c0.172 0.219 0.125 0.516-0.078 0.688-1.563 1.219-5.156 3.984-5.313 4.109-1.109 0.906-2.609 2.156-4.234 2.141h-0.031c-1.625 0-3.125-1.234-4.234-2.141-0.172-0.141-3.641-2.812-5.172-4-0.219-0.172-0.266-0.469-0.094-0.688l0.578-0.812c0.172-0.234 0.5-0.281 0.719-0.094 1.062 0.828 2.562 1.984 4.781 3.687 0.781 0.594 2.328 2.047 3.422 2.047h0.031c1.094 0 2.641-1.453 3.422-2.047 2.297-1.766 3.828-2.938 4.891-3.781 0.219-0.172 0.531-0.125 0.703 0.094zM26 25.5v-14.5c-1.563-1.453-1.328-1.328-8.563-6.922-0.781-0.609-2.328-2.078-3.422-2.078h-0.031c-1.094 0-2.641 1.469-3.422 2.078-7.234 5.594-7 5.469-8.563 6.922v14.5c0 0.266 0.234 0.5 0.5 0.5h23c0.266 0 0.5-0.234 0.5-0.5zM28 11v14.5c0 1.375-1.125 2.5-2.5 2.5h-23c-1.375 0-2.5-1.125-2.5-2.5v-14.5c0-0.562 0.234-1.094 0.641-1.469 3.203-2.969 6.891-5.547 9.109-7.375 1.094-0.906 2.609-2.156 4.234-2.156h0.031c1.625 0 3.141 1.25 4.234 2.156 2.063 1.703 5.984 4.469 9.109 7.375 0.406 0.375 0.641 0.906 0.641 1.469z"></path>
</symbol>
<symbol id="icon-address-card-o" viewBox="0 0 32 28">
<title>address-card-o</title>
<path d="M16 17.672c0 1.359-0.891 2.328-2 2.328h-8c-1.109 0-2-0.969-2-2.328 0-2.422 0.594-5.109 3.062-5.109 0.766 0.438 1.797 1.188 2.938 1.188s2.172-0.75 2.938-1.188c2.469 0 3.062 2.688 3.062 5.109zM13.547 9.547c0 1.969-1.594 3.547-3.547 3.547s-3.547-1.578-3.547-3.547c0-1.953 1.594-3.547 3.547-3.547s3.547 1.594 3.547 3.547zM28 16.5v1c0 0.281-0.219 0.5-0.5 0.5h-9c-0.281 0-0.5-0.219-0.5-0.5v-1c0-0.281 0.219-0.5 0.5-0.5h9c0.281 0 0.5 0.219 0.5 0.5zM28 12.563v0.875c0 0.313-0.25 0.562-0.562 0.562h-8.875c-0.313 0-0.562-0.25-0.562-0.562v-0.875c0-0.313 0.25-0.562 0.562-0.562h8.875c0.313 0 0.562 0.25 0.562 0.562zM28 8.5v1c0 0.281-0.219 0.5-0.5 0.5h-9c-0.281 0-0.5-0.219-0.5-0.5v-1c0-0.281 0.219-0.5 0.5-0.5h9c0.281 0 0.5 0.219 0.5 0.5zM30 23.5v-19c0-0.266-0.234-0.5-0.5-0.5h-27c-0.266 0-0.5 0.234-0.5 0.5v19c0 0.266 0.234 0.5 0.5 0.5h5.5v-1.5c0-0.281 0.219-0.5 0.5-0.5h1c0.281 0 0.5 0.219 0.5 0.5v1.5h12v-1.5c0-0.281 0.219-0.5 0.5-0.5h1c0.281 0 0.5 0.219 0.5 0.5v1.5h5.5c0.266 0 0.5-0.234 0.5-0.5zM32 4.5v19c0 1.375-1.125 2.5-2.5 2.5h-27c-1.375 0-2.5-1.125-2.5-2.5v-19c0-1.375 1.125-2.5 2.5-2.5h27c1.375 0 2.5 1.125 2.5 2.5z"></path>
</symbol>
<symbol id="icon-drivers-license-o" viewBox="0 0 32 28">
<title>drivers-license-o</title>
<path d="M14 18.937c0 1.141-0.75 2.063-1.672 2.063h-6.656c-0.922 0-1.672-0.922-1.672-2.063 0-2.063 0.5-4.438 2.562-4.438 0.625 0.625 1.484 1 2.438 1s1.813-0.375 2.438-1c2.063 0 2.562 2.375 2.562 4.438zM12 12c0 1.656-1.344 3-3 3s-3-1.344-3-3 1.344-3 3-3 3 1.344 3 3zM28 18.5v1c0 0.281-0.219 0.5-0.5 0.5h-11c-0.281 0-0.5-0.219-0.5-0.5v-1c0-0.281 0.219-0.5 0.5-0.5h11c0.281 0 0.5 0.219 0.5 0.5zM22 14.5v1c0 0.281-0.219 0.5-0.5 0.5h-5c-0.281 0-0.5-0.219-0.5-0.5v-1c0-0.281 0.219-0.5 0.5-0.5h5c0.281 0 0.5 0.219 0.5 0.5zM28 14.5v1c0 0.281-0.219 0.5-0.5 0.5h-3c-0.281 0-0.5-0.219-0.5-0.5v-1c0-0.281 0.219-0.5 0.5-0.5h3c0.281 0 0.5 0.219 0.5 0.5zM28 10.5v1c0 0.281-0.219 0.5-0.5 0.5h-11c-0.281 0-0.5-0.219-0.5-0.5v-1c0-0.281 0.219-0.5 0.5-0.5h11c0.281 0 0.5 0.219 0.5 0.5zM30 23.5v-17.5h-28v17.5c0 0.266 0.234 0.5 0.5 0.5h27c0.266 0 0.5-0.234 0.5-0.5zM32 4.5v19c0 1.375-1.125 2.5-2.5 2.5h-27c-1.375 0-2.5-1.125-2.5-2.5v-19c0-1.375 1.125-2.5 2.5-2.5h27c1.375 0 2.5 1.125 2.5 2.5z"></path>
</symbol>
<symbol id="icon-plus2" viewBox="0 0 32 32">
<title>plus2</title>
<path d="M31 12h-11v-11c0-0.552-0.448-1-1-1h-6c-0.552 0-1 0.448-1 1v11h-11c-0.552 0-1 0.448-1 1v6c0 0.552 0.448 1 1 1h11v11c0 0.552 0.448 1 1 1h6c0.552 0 1-0.448 1-1v-11h11c0.552 0 1-0.448 1-1v-6c0-0.552-0.448-1-1-1z"></path>
</symbol>
</defs>
</svg>
